<?xml version='1.0' encoding='iso-8859-1'?>
<!DOCTYPE svg PUBLIC '-//W3C//DTD SVG 1.1//EN' 'http://www.w3.org/Graphics/SVG/1.1/DTD/svg11.dtd'>
<!-- Uploaded to: SVG Repo, www.svgrepo.com, Generator: SVG Repo Mixer Tools -->
<svg fill="#000000" height="800px" width="800px" version="1.1" xmlns="http://www.w3.org/2000/svg" viewBox="0 0 461.147 461.147" xmlns:xlink="http://www.w3.org/1999/xlink" enable-background="new 0 0 461.147 461.147">
  <path d="m351.688,257.226l7.162-5.368c28.139-21.091 35.966-59.884 18.206-90.237l-51.639-88.249-14.544-34.571 21.745-16.298c5.524-4.141 6.646-11.976 2.505-17.5-4.14-5.524-11.975-6.645-17.499-2.505l-29.554,22.153c-4.59,3.44-6.249,9.563-4.024,14.85l14.865,35.332-219.295,164.372c-3.507,2.628-5.381,6.902-4.939,11.262 0.442,4.36 3.135,8.17 7.098,10.042l137.319,64.86-17.979,13.476c-10.462-9.78-23.626-16.142-38.101-18.215-18.668-2.671-37.263,2.085-52.354,13.397-15.091,11.312-24.874,27.823-27.547,46.492-2.672,18.669 2.086,37.262 13.397,52.353 11.311,15.091 27.822,24.874 46.491,27.547 3.395,0.486 6.785,0.726 10.154,0.726 15.159,0 29.853-4.868 42.199-14.123 15.091-11.312 24.874-27.823 27.547-46.492 2.072-14.475-0.342-28.895-6.794-41.681l115.576-86.63 27.354,36.494c2.455,3.276 6.21,5.004 10.012,5.004 2.608,0 5.239-0.814 7.487-2.499 5.524-4.14 6.646-11.975 2.505-17.499l-27.353-36.493zm-41.185-159.84l44.975,76.861c11.338,19.376 6.342,44.142-11.622,57.606l-102.135,76.556-130.51-61.644 199.292-149.379zm-112.349,299.603c-1.727,12.059-8.045,22.724-17.793,30.031-9.747,7.306-21.751,10.381-33.816,8.653-12.059-1.726-22.724-8.045-30.03-17.793-7.307-9.748-10.38-21.757-8.653-33.816s8.045-22.724 17.793-30.031c7.976-5.978 17.465-9.122 27.258-9.122 2.175,0 4.366,0.155 6.559,0.469 7.813,1.118 15.034,4.175 21.142,8.833l-35.102,26.311c-5.524,4.14-6.646,11.975-2.505,17.499 2.455,3.276 6.21,5.004 10.012,5.004 2.608,0 5.239-0.814 7.487-2.499l35.103-26.311c2.755,7.17 3.663,14.959 2.545,22.772z"/>
</svg>